<svg xmlns="http://www.w3.org/2000/svg" viewBox="176.507 127.306 100 100" width="100" height="100"  fill="#304888" xmlns:v="https://vecta.io/nano"><path d="M253.128 142.198c0-9.93-1.3-11.37-11.09-11.37h-30.67c-9.65 0-11.09 1.44-11.09 11.37v45.36c0 9.51 1.58 11.09 11.09 11.09h23.76c6.62 0 7.63 1.01 7.63 7.63 0 5.62-1.44 6.77-7.78 6.77h-25.63c-6.77 0-8.93 1.3-8.93 5.33s2.16 5.18 8.79 5.18h32.54c9.65 0 11.38-1.73 11.38-10.94v-70.42zm-10.37 6.63v31.68c0 6.62-1.15 7.63-7.78 7.63h-6.91c-7.05 0-7.77-.72-7.77-7.63v-12.96c0-5.76-.72-6.92-4.76-8.07-4.03-1.01-4.75-2.01-4.75-6.62v-4.03c0-6.48 1.15-7.64 7.63-7.64h16.71c6.62 0 7.63 1.01 7.63 7.64z" stroke="#fff" stroke-width="7"/><path d="M253.169 142.2c0-9.93-1.3-11.37-11.09-11.37h-30.67c-9.65 0-11.09 1.44-11.09 11.37v45.36c0 9.51 1.58 11.09 11.09 11.09h23.76c6.62 0 7.63 1.01 7.63 7.63 0 5.62-1.44 6.77-7.78 6.77h-25.63c-6.77 0-8.93 1.3-8.93 5.33s2.16 5.18 8.79 5.18h32.54c9.65 0 11.38-1.73 11.38-10.94V142.2zm-10.37 6.63v31.68c0 6.62-1.15 7.63-7.78 7.63h-6.91c-7.05 0-7.77-.72-7.77-7.63v-12.96c0-5.76-.72-6.92-4.76-8.07-4.03-1.01-4.75-2.01-4.75-6.62v-4.03c0-6.48 1.15-7.64 7.63-7.64h16.71c6.62 0 7.63 1.01 7.63 7.64z" stroke="#000" stroke-width="4"/></svg>