<svg xmlns="http://www.w3.org/2000/svg" viewBox="176.507 127.306 100 100" width="100" height="100"><circle cx="226.507" cy="177.306" r="50" fill="#fff"/><path d="M247.154 149.966c0-7.762-1.018-8.887-8.666-8.887h-23.962c-7.541 0-8.666 1.125-8.666 8.887v35.441c0 7.427 1.239 8.666 8.666 8.666h18.565c5.169 0 5.96.79 5.96 5.96 0 4.394-1.126 5.291-6.075 5.291h-20.031c-5.283 0-6.971 1.011-6.971 4.166 0 3.147 1.688 4.044 6.865 4.044h25.421c7.541 0 8.894-1.345 8.894-8.545v-55.023zm-8.103 5.177v24.752c0 5.177-.898 5.968-6.075 5.968h-5.405c-5.511 0-6.074-.563-6.074-5.968v-10.126c0-4.5-.562-5.397-3.709-6.302-3.155-.783-3.718-1.574-3.718-5.169v-3.155c0-5.063.905-5.96 5.968-5.96h13.053c5.169 0 5.96.783 5.96 5.96z" fill="#304888" stroke="#000" stroke-width="4"/><defs /></svg>