<svg xmlns="http://www.w3.org/2000/svg" viewBox="176.507 127.306 100 100" width="100" height="100"><path d="M253.89 141.338c0-10.21-1.34-11.69-11.4-11.69h-31.52c-9.92 0-11.4 1.48-11.4 11.69v46.62c0 9.77 1.63 11.4 11.4 11.4h24.42c6.8 0 7.84 1.04 7.84 7.84 0 5.78-1.48 6.96-7.99 6.96h-26.35c-6.95 0-9.17 1.33-9.17 5.48 0 4.14 2.22 5.32 9.03 5.32h33.44c9.92 0 11.7-1.77 11.7-11.24v-72.38zm-10.66 6.81v32.56c0 6.81-1.18 7.85-7.99 7.85h-7.11c-7.25 0-7.99-.74-7.99-7.85v-13.32c0-5.92-.74-7.1-4.88-8.29-4.15-1.03-4.89-2.07-4.89-6.8v-4.15c0-6.66 1.19-7.84 7.85-7.84h17.17c6.8 0 7.84 1.03 7.84 7.84z" fill="#304888" stroke="#000" stroke-width="4"/></svg>