<svg xmlns="http://www.w3.org/2000/svg" viewBox="475.958 253.68 141 53" width="141" height="53"><g fill="#304888" stroke="#000"><path d="M503.72 260.652c0-4.97-.64-5.69-5.54-5.69h-15.34c-4.82 0-5.54.72-5.54 5.69v22.68c0 4.75.79 5.54 5.54 5.54h11.88c3.32 0 3.82.5 3.82 3.82 0 2.8-.72 3.38-3.89 3.38h-12.81c-3.39 0-4.47.65-4.47 2.66 0 2.02 1.08 2.6 4.39 2.6h16.28c4.82 0 5.68-.87 5.68-5.48v-35.2zm-5.18 3.31v15.84c0 3.31-.58 3.81-3.89 3.81h-3.45c-3.53 0-3.89-.36-3.89-3.81v-6.48c0-2.88-.36-3.46-2.38-4.03-2.01-.51-2.37-1.01-2.37-3.32v-2.01c0-3.24.57-3.82 3.81-3.82h8.35c3.32 0 3.82.51 3.82 3.82z" paint-order="fill" stroke-width="2"/><path d="M511.122 300.262c0-1.22-.36-1.51-1.9-1.51-1.51 0-1.87.27-1.87 1.42 0 1.27.31 1.51 1.97 1.51 1.39 0 1.8-.34 1.8-1.42zm2.081-.48c0 1.66.24 1.9 1.85 1.9h4.1c.89 0 1.11.22 1.11 1.08v1.68c0 1.13.21 1.46.88 1.46.68 0 .87-.36.87-1.48v-12.2c0-1.51-.34-1.84-1.8-1.84h-5.16c-1.59 0-1.85.26-1.85 1.84v7.56zm7.08-6.4v5.28c0 1.1-.19 1.27-1.3 1.27h-1.15c-1.17 0-1.29-.12-1.29-1.27v-2.16c0-.96-.12-1.16-.8-1.35-.67-.17-.79-.33-.79-1.1v-.67c0-1.08.19-1.28 1.27-1.28h2.79c1.1 0 1.27.17 1.27 1.28zm10.531 8.3c1.58 0 1.85-.26 1.85-1.85v-8.04c0-1.13-.19-1.46-.87-1.46-.67 0-.88.36-.88 1.46v6.87c0 1.1-.17 1.27-1.28 1.27h-1.15c-1.17 0-1.29-.12-1.29-1.27v-2.69c0-.96-.12-1.15-.8-1.35-.69-.16-.79-.33-.79-1.1v-1.73c0-1.13-.19-1.46-.86-1.46s-.89.36-.89 1.46v8.04c0 1.59.26 1.85 1.85 1.85h5.11zm7.122-14.54v-.05c0-1.11-.38-1.44-1.63-1.44-1.3 0-1.73.38-1.73 1.53 0 1.08.38 1.4 1.68 1.4 1.27 0 1.68-.34 1.68-1.44zm-.02 8.83c0-.96-.12-1.15-.8-1.35-.67-.16-.76-.33-.76-1.1v-1.73c0-1.13-.22-1.46-.89-1.46-.65 0-.87.36-.87 1.46v7.85c0 1.78.22 2.04 1.73 2.04 1.32 0 1.59-.36 1.59-2.04v-3.67zm1.626 3.81c0 1.66.24 1.9 1.85 1.9h4.1c.89 0 1.11.22 1.11 1.08v1.68c0 1.13.21 1.46.88 1.46.68 0 .87-.36.87-1.48v-12.2c0-1.51-.34-1.84-1.8-1.84h-5.16c-1.59 0-1.85.26-1.85 1.84v7.56zm7.08-6.4v5.28c0 1.1-.19 1.27-1.3 1.27h-1.15c-1.17 0-1.29-.12-1.29-1.27v-2.16c0-.96-.12-1.16-.8-1.35-.67-.17-.79-.33-.79-1.1v-.67c0-1.08.19-1.28 1.27-1.28h2.79c1.1 0 1.27.17 1.27 1.28zm10.53 8.3c1.58 0 1.85-.26 1.85-1.85v-8.04c0-1.13-.19-1.46-.87-1.46-.67 0-.88.36-.88 1.46v6.87c0 1.1-.17 1.27-1.28 1.27h-1.15c-1.17 0-1.29-.12-1.29-1.27v-2.69c0-.96-.12-1.15-.8-1.35-.69-.16-.79-.33-.79-1.1v-1.73c0-1.13-.19-1.46-.86-1.46s-.89.36-.89 1.46v8.04c0 1.59.26 1.85 1.85 1.85h5.11zm12.573-9.41c0-1.65-.22-1.89-1.85-1.89h-5.11c-1.61 0-1.85.24-1.85 1.89v7.56c0 1.59.26 1.85 1.85 1.85h5.11c1.58 0 1.85-.26 1.85-1.85v-.67c0-.86-.27-1.25-.89-1.25-.5 0-.79.29-.84.82l-.05.41c-.05.57-.29.76-1.01.76h-1.41c-1.15 0-1.3-.12-1.3-1.27v-.77c0-1.08.19-1.27 1.27-1.27h2.38c1.58 0 1.85-.29 1.85-1.85v-2.47zm-3.03 2.57h-2.76c-1.15 0-1.27-.12-1.27-1.3v-.16c0-1.16.12-1.28 1.27-1.28h2.76c1.11 0 1.28.17 1.28 1.28v.16c0 1.13-.17 1.3-1.28 1.3zm8.739 5.42c0-1.22-.36-1.51-1.9-1.51-1.51 0-1.87.27-1.87 1.42 0 1.27.31 1.51 1.97 1.51 1.39 0 1.8-.34 1.8-1.42zm10.891-7.99c0-1.65-.22-1.89-1.85-1.89h-5.11c-1.61 0-1.85.24-1.85 1.89v7.56c0 1.59.26 1.85 1.85 1.85h3.96c1.1 0 1.27.17 1.27 1.27 0 .94-.24 1.13-1.3 1.13h-4.27c-1.13 0-1.49.22-1.49.89s.36.86 1.47.86h5.42c1.61 0 1.9-.29 1.9-1.82v-11.74zm-1.73 1.11v5.28c0 1.1-.19 1.27-1.3 1.27h-1.15c-1.17 0-1.29-.12-1.29-1.27v-2.16c0-.96-.12-1.16-.8-1.35-.67-.17-.79-.33-.79-1.1v-.67c0-1.08.19-1.28 1.27-1.28h2.79c1.1 0 1.27.17 1.27 1.28zm3.57 6.4c0 1.66.24 1.9 1.85 1.9h4.1c.89 0 1.11.22 1.11 1.08v1.68c0 1.13.21 1.46.88 1.46.68 0 .87-.36.87-1.48v-12.2c0-1.51-.34-1.84-1.8-1.84h-5.16c-1.59 0-1.85.26-1.85 1.84v7.56zm7.08-6.4v5.28c0 1.1-.19 1.27-1.3 1.27h-1.15c-1.17 0-1.29-.12-1.29-1.27v-2.16c0-.96-.12-1.16-.8-1.35-.67-.17-.79-.33-.79-1.1v-.67c0-1.08.19-1.28 1.27-1.28h2.79c1.1 0 1.27.17 1.27 1.28z"/><path d="M530.418 259.76c0-4.06-.52-4.58-4.47-4.58h-12.35c-3.95 0-4.47.58-4.47 4.58v.7c0 2.49.47 3.25 2.09 3.25 1.22 0 1.91-.64 2.09-1.92l.11-.81c.18-1.27.76-1.62 2.73-1.62h6.96c2.67 0 3.02.4 3.02 3.07v.52c0 2.67-.41 3.08-3.08 3.08h-9.45c-3.95 0-4.47.58-4.47 4.58l-.06 7.42c0 3.83.7 4.47 4.53 4.47h12.29c3.83 0 4.53-.64 4.53-4.47v-18.27zm-4.29 13.75v1.74c0 2.61-.41 3.02-3.08 3.02h-2.78c-2.84 0-3.13-.29-3.13-3.08v-1.85c0-2.61.46-3.08 3.07-3.08h2.9c2.73 0 3.02.35 3.02 3.25zm13.395-18.33c-3.89 0-4.47.58-4.47 4.58v17.81c0 4.29.52 4.93 4.23 4.93 3.19 0 3.89-.87 3.89-4.93v-7.6c0-2.32-.29-2.78-1.91-3.25-1.63-.4-1.92-.81-1.92-2.66v-1.63c0-2.61.47-3.07 3.08-3.07h2.72c2.67 0 3.02.4 3.02 3.07v15.14c0 4.29.58 4.93 4.23 4.93 3.19 0 3.83-.87 3.83-4.93v-7.6c0-2.32-.29-2.78-1.91-3.25-1.63-.4-1.92-.81-1.92-2.66v-1.63c0-2.61.47-3.07 3.08-3.07h2.72c2.67 0 3.08.4 3.08 3.07v16.53c0 2.73.46 3.54 2.08 3.54 1.63 0 2.15-.87 2.15-3.6v-19.14c0-4-.58-4.58-4.47-4.58h-21.51zm51.906 4.58c0-4-.53-4.58-4.47-4.58h-12.35c-3.89 0-4.47.58-4.47 4.58v18.27c0 3.83.64 4.47 4.47 4.47h12.35c3.83 0 4.47-.64 4.47-4.47v-1.62c0-2.09-.64-3.02-2.15-3.02-1.22 0-1.91.7-2.03 1.98l-.12.98c-.11 1.39-.69 1.86-2.43 1.86h-3.42c-2.79 0-3.14-.29-3.14-3.08v-1.85c0-2.61.47-3.08 3.08-3.08h5.74c3.83 0 4.47-.69 4.47-4.46v-5.98zm-7.31 6.21h-6.67c-2.79 0-3.08-.29-3.08-3.13v-.41c0-2.78.29-3.07 3.08-3.07h6.67c2.67 0 3.07.4 3.07 3.07v.41c0 2.72-.4 3.13-3.07 3.13zm32.594 4.64c0-4-.58-4.58-4.47-4.58h-9.57c-2.67 0-3.07-.41-3.07-3.08v-.46c0-2.67.34-3.07 3.07-3.07h6.84c2.32 0 2.67.29 2.9 2.08.18 1.63.76 2.27 2.15 2.27 1.51 0 2.15-.82 2.15-2.79v-1.22c0-4-.58-4.58-4.47-4.58h-12.47c-3.89 0-4.47.58-4.47 4.58v6.04c0 3.82.7 4.52 4.53 4.52h5.68c2.73 0 3.08.35 3.08 3.02v1.91c0 2.67-.41 3.07-3.08 3.07h-3.07c-2.38 0-2.79-.4-2.9-2.84-.12-2.14-.58-2.84-2.09-2.84-1.57 0-2.09.87-2.09 3.48v1.91c0 3.83.7 4.47 4.53 4.47h12.29c3.83 0 4.53-.64 4.53-4.47v-7.42z" stroke-width="2" stroke-opacity=".01" fill-opacity=".01"/></g><path d="M608.966 292.988l-5.6 3.473 5.664 2.755 5.578-2.691-5.664-3.58" stroke="#767676" fill="#767676"/><g stroke="#353535"><path d="M609.242 300.426l-7.147-3.472"/><path d="M608.811 300.427l7.147-3.472"/></g><g stroke="#272727" stroke-width="2.01"><path d="M609.456 302.086l-7.549-3.573"/><path d="M608.616 302.087l7.437-3.519"/></g><g stroke="#000"><path d="M601.953 296.01v3.955"/><path d="M609.219 303.308l-7.48-3.772m14.318-3.526v3.955"/><path d="M608.791 303.308l7.48-3.772m-7.119-6.957l-7.463 3.839"/><path d="M608.724 292.579l7.563 3.855"/></g><g fill="#b8000f"><ellipse cx="604.811" cy="296.513" rx=".855" ry=".572"/><path d="M603.963 296.243h1.687v.374h-1.687z"/></g><ellipse cx="604.799" cy="296.179" rx=".842" ry=".572" fill="#ff0015"/><ellipse cx="609.02" cy="296.547" rx="2.875" ry="1.563" fill="#3d3d3d"/><path d="M608.473 292.981h1.023v3.633h-1.023z" fill="#d8d8d8"/><circle cx="608.963" cy="291.442" r="2.8"/><circle cx="608.994" cy="291.493" r="1.909" fill="red"/><defs /></svg>