<?xml version="1.0" encoding="utf-8"?>
<svg viewBox="471.889 246.932 150 65" width="150" height="65" xmlns="http://www.w3.org/2000/svg">
  <g fill="#304888" stroke="#000" transform="matrix(1, 0, 0, 1, 388.504517, 145.636993)">
    <path d="M115.098 115.015c0-4.97-.64-5.69-5.54-5.69h-15.34c-4.82 0-5.54.72-5.54 5.69v22.68c0 4.75.79 5.54 5.54 5.54h11.88c3.32 0 3.82.5 3.82 3.82 0 2.8-.72 3.38-3.89 3.38h-12.81c-3.39 0-4.47.65-4.47 2.66 0 2.02 1.08 2.6 4.39 2.6h16.28c4.82 0 5.68-.87 5.68-5.48v-35.2zm-5.18 3.31v15.84c0 3.31-.58 3.81-3.89 3.81h-3.45c-3.53 0-3.89-.36-3.89-3.81v-6.48c0-2.88-.36-3.46-2.38-4.03-2.01-.51-2.37-1.01-2.37-3.32v-2.01c0-3.24.57-3.82 3.81-3.82h8.35c3.32 0 3.82.51 3.82 3.82z" paint-order="fill" stroke-width="2"/>
    <path d="M122.5 154.625c0-1.22-.36-1.51-1.9-1.51-1.51 0-1.87.27-1.87 1.42 0 1.27.31 1.51 1.97 1.51 1.39 0 1.8-.34 1.8-1.42zm2.081-.48c0 1.66.24 1.9 1.85 1.9h4.1c.89 0 1.11.22 1.11 1.08v1.68c0 1.13.21 1.46.88 1.46.68 0 .87-.36.87-1.48v-12.2c0-1.51-.34-1.84-1.8-1.84h-5.16c-1.59 0-1.85.26-1.85 1.84v7.56zm7.08-6.4v5.28c0 1.1-.19 1.27-1.3 1.27h-1.15c-1.17 0-1.29-.12-1.29-1.27v-2.16c0-.96-.12-1.16-.8-1.35-.67-.17-.79-.33-.79-1.1v-.67c0-1.08.19-1.28 1.27-1.28h2.79c1.1 0 1.27.17 1.27 1.28zm10.531 8.3c1.58 0 1.85-.26 1.85-1.85v-8.04c0-1.13-.19-1.46-.87-1.46-.67 0-.88.36-.88 1.46v6.87c0 1.1-.17 1.27-1.28 1.27h-1.15c-1.17 0-1.29-.12-1.29-1.27v-2.69c0-.96-.12-1.15-.8-1.35-.69-.16-.79-.33-.79-1.1v-1.73c0-1.13-.19-1.46-.86-1.46s-.89.36-.89 1.46v8.04c0 1.59.26 1.85 1.85 1.85h5.11zm7.122-14.54v-.05c0-1.11-.38-1.44-1.63-1.44-1.3 0-1.73.38-1.73 1.53 0 1.08.38 1.4 1.68 1.4 1.27 0 1.68-.34 1.68-1.44zm-.02 8.83c0-.96-.12-1.15-.8-1.35-.67-.16-.76-.33-.76-1.1v-1.73c0-1.13-.22-1.46-.89-1.46-.65 0-.87.36-.87 1.46v7.85c0 1.78.22 2.04 1.73 2.04 1.32 0 1.59-.36 1.59-2.04v-3.67zm1.626 3.81c0 1.66.24 1.9 1.85 1.9h4.1c.89 0 1.11.22 1.11 1.08v1.68c0 1.13.21 1.46.88 1.46.68 0 .87-.36.87-1.48v-12.2c0-1.51-.34-1.84-1.8-1.84h-5.16c-1.59 0-1.85.26-1.85 1.84v7.56zm7.08-6.4v5.28c0 1.1-.19 1.27-1.3 1.27h-1.15c-1.17 0-1.29-.12-1.29-1.27v-2.16c0-.96-.12-1.16-.8-1.35-.67-.17-.79-.33-.79-1.1v-.67c0-1.08.19-1.28 1.27-1.28h2.79c1.1 0 1.27.17 1.27 1.28zm10.53 8.3c1.58 0 1.85-.26 1.85-1.85v-8.04c0-1.13-.19-1.46-.87-1.46-.67 0-.88.36-.88 1.46v6.87c0 1.1-.17 1.27-1.28 1.27h-1.15c-1.17 0-1.29-.12-1.29-1.27v-2.69c0-.96-.12-1.15-.8-1.35-.69-.16-.79-.33-.79-1.1v-1.73c0-1.13-.19-1.46-.86-1.46s-.89.36-.89 1.46v8.04c0 1.59.26 1.85 1.85 1.85h5.11zm12.573-9.41c0-1.65-.22-1.89-1.85-1.89h-5.11c-1.61 0-1.85.24-1.85 1.89v7.56c0 1.59.26 1.85 1.85 1.85h5.11c1.58 0 1.85-.26 1.85-1.85v-.67c0-.86-.27-1.25-.89-1.25-.5 0-.79.29-.84.82l-.05.41c-.05.57-.29.76-1.01.76h-1.41c-1.15 0-1.3-.12-1.3-1.27v-.77c0-1.08.19-1.27 1.27-1.27h2.38c1.58 0 1.85-.29 1.85-1.85v-2.47zm-3.03 2.57h-2.76c-1.15 0-1.27-.12-1.27-1.3v-.16c0-1.16.12-1.28 1.27-1.28h2.76c1.11 0 1.28.17 1.28 1.28v.16c0 1.13-.17 1.3-1.28 1.3zm8.739 5.42c0-1.22-.36-1.51-1.9-1.51-1.51 0-1.87.27-1.87 1.42 0 1.27.31 1.51 1.97 1.51 1.39 0 1.8-.34 1.8-1.42zm10.891-7.99c0-1.65-.22-1.89-1.85-1.89h-5.11c-1.61 0-1.85.24-1.85 1.89v7.56c0 1.59.26 1.85 1.85 1.85h3.96c1.1 0 1.27.17 1.27 1.27 0 .94-.24 1.13-1.3 1.13h-4.27c-1.13 0-1.49.22-1.49.89s.36.86 1.47.86h5.42c1.61 0 1.9-.29 1.9-1.82v-11.74zm-1.73 1.11v5.28c0 1.1-.19 1.27-1.3 1.27h-1.15c-1.17 0-1.29-.12-1.29-1.27v-2.16c0-.96-.12-1.16-.8-1.35-.67-.17-.79-.33-.79-1.1v-.67c0-1.08.19-1.28 1.27-1.28h2.79c1.1 0 1.27.17 1.27 1.28zm3.57 6.4c0 1.66.24 1.9 1.85 1.9h4.1c.89 0 1.11.22 1.11 1.08v1.68c0 1.13.21 1.46.88 1.46.68 0 .87-.36.87-1.48v-12.2c0-1.51-.34-1.84-1.8-1.84h-5.16c-1.59 0-1.85.26-1.85 1.84v7.56zm7.08-6.4v5.28c0 1.1-.19 1.27-1.3 1.27h-1.15c-1.17 0-1.29-.12-1.29-1.27v-2.16c0-.96-.12-1.16-.8-1.35-.67-.17-.79-.33-.79-1.1v-.67c0-1.08.19-1.28 1.27-1.28h2.79c1.1 0 1.27.17 1.27 1.28z" style=""/>
  </g>
  <path d="M 530.301 259.76 C 530.301 255.7 529.781 255.18 525.831 255.18 L 513.481 255.18 C 509.531 255.18 509.011 255.76 509.011 259.76 L 509.011 260.46 C 509.011 262.95 509.481 263.71 511.101 263.71 C 512.321 263.71 513.011 263.07 513.191 261.79 L 513.301 260.98 C 513.481 259.71 514.061 259.36 516.031 259.36 L 522.991 259.36 C 525.661 259.36 526.011 259.76 526.011 262.43 L 526.011 262.95 C 526.011 265.62 525.601 266.03 522.931 266.03 L 513.481 266.03 C 509.531 266.03 509.011 266.61 509.011 270.61 L 508.951 278.03 C 508.951 281.86 509.651 282.5 513.481 282.5 L 525.771 282.5 C 529.601 282.5 530.301 281.86 530.301 278.03 L 530.301 259.76 Z M 526.011 273.51 L 526.011 275.25 C 526.011 277.86 525.601 278.27 522.931 278.27 L 520.151 278.27 C 517.311 278.27 517.021 277.98 517.021 275.19 L 517.021 273.34 C 517.021 270.73 517.481 270.26 520.091 270.26 L 522.991 270.26 C 525.721 270.26 526.011 270.61 526.011 273.51 Z M 539.406 255.18 C 535.516 255.18 534.936 255.76 534.936 259.76 L 534.936 277.57 C 534.936 281.86 535.456 282.5 539.166 282.5 C 542.356 282.5 543.056 281.63 543.056 277.57 L 543.056 269.97 C 543.056 267.65 542.766 267.19 541.146 266.72 C 539.516 266.32 539.226 265.91 539.226 264.06 L 539.226 262.43 C 539.226 259.82 539.696 259.36 542.306 259.36 L 545.026 259.36 C 547.696 259.36 548.046 259.76 548.046 262.43 L 548.046 277.57 C 548.046 281.86 548.626 282.5 552.276 282.5 C 555.466 282.5 556.106 281.63 556.106 277.57 L 556.106 269.97 C 556.106 267.65 555.816 267.19 554.196 266.72 C 552.566 266.32 552.276 265.91 552.276 264.06 L 552.276 262.43 C 552.276 259.82 552.746 259.36 555.356 259.36 L 558.076 259.36 C 560.746 259.36 561.156 259.76 561.156 262.43 L 561.156 278.96 C 561.156 281.69 561.616 282.5 563.236 282.5 C 564.866 282.5 565.386 281.63 565.386 278.9 L 565.386 259.76 C 565.386 255.76 564.806 255.18 560.916 255.18 L 539.406 255.18 Z M 591.312 259.76 C 591.312 255.76 590.782 255.18 586.842 255.18 L 574.492 255.18 C 570.602 255.18 570.022 255.76 570.022 259.76 L 570.022 278.03 C 570.022 281.86 570.662 282.5 574.492 282.5 L 586.842 282.5 C 590.672 282.5 591.312 281.86 591.312 278.03 L 591.312 276.41 C 591.312 274.32 590.672 273.39 589.162 273.39 C 587.942 273.39 587.252 274.09 587.132 275.37 L 587.012 276.35 C 586.902 277.74 586.322 278.21 584.582 278.21 L 581.162 278.21 C 578.372 278.21 578.022 277.92 578.022 275.13 L 578.022 273.28 C 578.022 270.67 578.492 270.2 581.102 270.2 L 586.842 270.2 C 590.672 270.2 591.312 269.51 591.312 265.74 L 591.312 259.76 Z M 584.002 265.97 L 577.332 265.97 C 574.542 265.97 574.252 265.68 574.252 262.84 L 574.252 262.43 C 574.252 259.65 574.542 259.36 577.332 259.36 L 584.002 259.36 C 586.672 259.36 587.072 259.76 587.072 262.43 L 587.072 262.84 C 587.072 265.56 586.672 265.97 584.002 265.97 Z M 616.596 270.61 C 616.596 266.61 616.016 266.03 612.126 266.03 L 602.556 266.03 C 599.886 266.03 599.486 265.62 599.486 262.95 L 599.486 262.49 C 599.486 259.82 599.826 259.42 602.556 259.42 L 609.396 259.42 C 611.716 259.42 612.066 259.71 612.296 261.5 C 612.476 263.13 613.056 263.77 614.446 263.77 C 615.956 263.77 616.596 262.95 616.596 260.98 L 616.596 259.76 C 616.596 255.76 616.016 255.18 612.126 255.18 L 599.656 255.18 C 595.766 255.18 595.186 255.76 595.186 259.76 L 595.186 265.8 C 595.186 269.62 595.886 270.32 599.716 270.32 L 605.396 270.32 C 608.126 270.32 608.476 270.67 608.476 273.34 L 608.476 275.25 C 608.476 277.92 608.066 278.32 605.396 278.32 L 602.326 278.32 C 599.946 278.32 599.536 277.92 599.426 275.48 C 599.306 273.34 598.846 272.64 597.336 272.64 C 595.766 272.64 595.246 273.51 595.246 276.12 L 595.246 278.03 C 595.246 281.86 595.946 282.5 599.776 282.5 L 612.066 282.5 C 615.896 282.5 616.596 281.86 616.596 278.03 L 616.596 270.61 Z" stroke-width="2" style="stroke: rgb(0, 0, 0); fill: rgb(48, 72, 136); stroke-opacity: 0.03; fill-opacity: 0.03;"/>
  <g transform="matrix(1, 0, 0, 1, 0.946343, -9.020216)">
    <g>
      <polyline style="stroke: rgb(118, 118, 118); fill: rgb(118, 118, 118);" points="607.903 302.008 602.303 305.481 607.967 308.236 613.545 305.545 607.881 301.965"/>
      <g>
        <line style="stroke: rgb(53, 53, 53);" x1="608.179" y1="309.446" x2="601.032" y2="305.974"/>
        <line style="stroke: rgb(53, 53, 53);" x1="614.895" y1="305.975" x2="607.748" y2="309.447" transform="matrix(-1, 0, 0, -1, 1222.643005, 615.421997)"/>
      </g>
      <g transform="matrix(1.009884, 0, 0, 1, -5.98236, 1.642668)">
        <line style="stroke-width: 2px; stroke: rgb(39, 39, 39);" x1="608.362" y1="309.463" x2="600.887" y2="305.89"/>
        <line style="stroke-width: 2px; stroke: rgb(39, 39, 39);" x1="615.112" y1="305.958" x2="607.748" y2="309.477" transform="matrix(-1, 0, 0, -1, 1222.643005, 615.421997)"/>
      </g>
    </g>
    <g>
      <line style="stroke: rgb(0, 0, 0);" x1="600.89" y1="305.03" x2="600.89" y2="308.985"/>
      <line style="stroke: rgb(0, 0, 0);" x1="608.156" y1="312.328" x2="600.676" y2="308.556"/>
      <line style="stroke: rgb(0, 0, 0);" x1="614.994" y1="308.985" x2="614.994" y2="305.03" transform="matrix(-1, 0, 0, -1, 1229.988037, 614.014984)"/>
      <line style="stroke: rgb(0, 0, 0);" x1="615.208" y1="308.556" x2="607.728" y2="312.328" transform="matrix(-1, 0, 0, -1, 1222.936035, 620.884003)"/>
      <line style="stroke: rgb(0, 0, 0);" x1="608.089" y1="301.599" x2="600.626" y2="305.438"/>
      <line style="stroke: rgb(0, 0, 0);" x1="615.224" y1="305.454" x2="607.661" y2="301.599" transform="matrix(-1, 0, 0, -1, 1222.88501, 607.053009)"/>
    </g>
    <g>
      <ellipse style="fill: rgb(184, 0, 15);" cx="603.748" cy="305.533" rx="0.855" ry="0.572"/>
      <rect x="602.9" y="305.263" width="1.687" height="0.374" style="fill: rgb(184, 0, 15);"/>
      <ellipse style="fill: rgb(255, 0, 21);" cx="603.736" cy="305.199" rx="0.842" ry="0.572"/>
    </g>
    <g>
      <g>
        <ellipse style="fill: rgb(61, 61, 61);" cx="607.957" cy="305.567" rx="2.875" ry="1.563"/>
        <rect x="607.41" y="302.001" width="1.023" height="3.633" style="fill: rgb(216, 216, 216);"/>
      </g>
      <g>
        <circle style="" cx="607.9" cy="300.462" r="2.8"/>
        <circle style="fill: rgb(255, 0, 0);" cx="607.931" cy="300.513" r="1.909"/>
      </g>
    </g>
  </g>
</svg>